<svg width="14" height="16" viewBox="0 0 36 38" fill="none" xmlns="http://www.w3.org/2000/svg">
<g clip-path="url(#clip0_9_29)">
<path d="M35 2H1C0.447 2 0 2.448 0 3V35C0 36.654 1.346 38 3 38H33C34.654 38 36 36.654 36 35V3C36 2.448 35.553 2 35 2Z" fill="black"/>
<path d="M33 35H3C1.895 35 1 34.105 1 33V1H35V33C35 34.105 34.105 35 33 35Z" fill="white"/>
<path d="M33 36H3C1.346 36 0 34.654 0 33V1C0 0.447 0.447 0 1 0H35C35.553 0 36 0.447 36 1V33C36 34.654 34.654 36 33 36ZM2 2V33C2 33.552 2.448 34 3 34H33C33.552 34 34 33.552 34 33V2H2Z" fill="black"/>
<path d="M9.24418 7.91129C9.30478 6.83829 9.56108 6.37169 10.2962 5.99699C11.087 5.59369 12.3344 5.78139 13.8022 6.52459C14.4344 6.84489 14.4988 6.85139 15.6068 6.70939C17.0795 6.52049 18.9754 6.52119 20.3347 6.71109C21.3626 6.85479 21.4301 6.84759 22.0638 6.52659C24.1473 5.47159 25.7922 5.54059 26.3878 6.70799C26.6851 7.29079 26.7403 8.80279 26.5098 10.05C26.382 10.7414 26.3955 10.8277 26.7034 11.2814C28.8698 14.4738 27.3088 19.6486 23.5967 21.5797C23.3126 21.7275 23.0732 21.819 22.8781 21.8935C22.2791 22.1222 22.0972 22.1917 22.3174 23.2446C22.4234 23.7511 22.5511 25.0102 22.6013 26.0429C22.6921 27.9096 22.6907 27.9226 22.3633 28.3035C21.9177 28.8215 21.2754 28.8302 20.8402 28.3242C20.5563 27.9942 20.5286 27.8384 20.5286 26.5651C20.5286 24.6836 20.3224 23.4329 19.8351 22.3613C19.2556 21.086 19.6852 20.6104 21.0104 20.3254C22.8524 19.9292 24.291 18.7924 25.0929 17.0996C25.8553 15.4904 25.9702 13.2667 24.5919 11.9143C24.1999 11.4485 24.1726 11.0265 24.4525 9.75429C24.5571 9.27879 24.6448 8.66529 24.6474 8.39089C24.6513 7.95759 24.6119 7.89209 24.3457 7.89209C24.1773 7.89209 23.5337 8.13709 22.9158 8.43649L21.9296 8.91459C21.8399 8.95799 21.7396 8.97469 21.6406 8.96339C19.1328 8.67549 16.7499 8.67109 14.2298 8.96449C14.1305 8.97599 14.0297 8.95929 13.9397 8.91569L12.954 8.43729C12.336 8.13739 11.6925 7.89209 11.5241 7.89209C11.1348 7.89209 11.1289 8.17959 11.4838 9.88729C11.7006 10.9303 11.8465 11.1627 11.2198 11.9966C10.2805 13.2467 10.0458 14.7989 10.5495 16.4298C11.1844 18.485 12.7391 19.8735 14.9247 20.3367C16.2423 20.616 16.5867 20.9803 16.0835 22.4912C15.6875 23.6801 15.4371 23.9866 14.8615 23.9866C14.0871 23.9866 13.602 23.3158 13.869 22.6138C13.9866 22.3044 13.9516 22.2714 13.2261 22.0068C11.0116 21.1994 9.31778 19.3897 8.54348 17.0035C7.94488 15.1592 8.20828 12.7588 9.16848 11.3079C9.49538 10.8139 9.50048 10.772 9.34788 9.82619C9.26158 9.29089 9.21488 8.42919 9.24418 7.91129Z" fill="black"/>
<path d="M8.47078 21.6098C8.15168 21.1311 7.50498 21.0018 7.02628 21.3209C6.54758 21.64 6.41828 22.2868 6.73738 22.7654C6.97298 23.1188 7.25478 23.4092 7.49418 23.6484C7.53828 23.6926 7.58118 23.7352 7.62298 23.7768C7.82348 23.9759 8.00058 24.1518 8.17838 24.3605C8.57158 24.8221 8.96388 25.4437 9.18688 26.5585C9.28618 27.0551 9.64308 27.3226 9.84088 27.4395C10.0553 27.5661 10.2897 27.6408 10.4825 27.6895C10.877 27.789 11.3559 27.8406 11.8104 27.8707C12.3093 27.9038 12.8499 27.9146 13.3333 27.9175C13.3337 28.4924 13.7999 28.9584 14.375 28.9584C14.9503 28.9584 15.4166 28.4921 15.4166 27.9168V26.8751C15.4166 26.2998 14.9503 25.8334 14.375 25.8334C14.2768 25.8334 14.1705 25.8337 14.058 25.8342C13.4467 25.836 12.6498 25.8384 11.9481 25.792C11.6097 25.7696 11.3315 25.7378 11.1275 25.699C10.8133 24.4657 10.3058 23.6452 9.76428 23.0095C9.52488 22.7285 9.27698 22.4827 9.07538 22.2827C9.03758 22.2453 9.00148 22.2095 8.96728 22.1753C8.73468 21.9427 8.58248 21.7773 8.47078 21.6098Z" fill="black"/>
</g>
<defs>
<clipPath id="clip0_9_29">
<rect width="36" height="38" fill="white"/>
</clipPath>
</defs>
</svg>
