<svg  
    width="14" height="16" viewBox="0 0 36 38" fill="none" xmlns="http://www.w3.org/2000/svg">
    <g clip-path="url(#clip0_6_2)">
        <path d="M35 2H1C0.447 2 0 2.448 0 3V35C0 36.654 1.346 38 3 38H33C34.654 38 36 36.654 36 35V3C36 2.448 35.553 2 35 2Z" fill="black"/>
        <path d="M33 35H3C1.895 35 1 34.105 1 33V1H35V33C35 34.105 34.105 35 33 35Z" fill="white"/>
        <path d="M33 36H3C1.346 36 0 34.654 0 33V1C0 0.447 0.447 0 1 0H35C35.553 0 36 0.447 36 1V33C36 34.654 34.654 36 33 36ZM2 2V33C2 33.552 2.448 34 3 34H33C33.552 34 34 33.552 34 33V2H2Z" fill="black"/>
        <path d="M11 28H20H27M11 31H16.75H22.5" stroke="black"/>
        <path d="M10 2V4.5C10.1667 5 10.7 6 11.5 6C12.3 6 20.8333 6 25 6C25.5 6 26.5 5.7 26.5 4.5C26.5 3.3 26.5 1.66667 26.5 1" stroke="black"/>
        <path d="M18.3571 16.8462C19.373 16.8462 20.3472 16.4329 21.0655 15.6971C21.7838 14.9614 22.1874 13.9636 22.1874 12.9231C22.1874 11.8826 21.7838 10.8848 21.0655 10.149C20.3472 9.41333 19.373 9 18.3571 9C17.3413 9 16.3671 9.41333 15.6488 10.149C14.9305 10.8848 14.5269 11.8826 14.5269 12.9231C14.5269 13.9636 14.9305 14.9614 15.6488 15.6971C16.3671 16.4329 17.3413 16.8462 18.3571 16.8462ZM18.3571 18.5698C13.2646 18.5698 10 21.4482 10 22.8497V25.4667H26.7143V22.8497C26.7143 21.1549 23.6237 18.5698 18.3571 18.5698Z" fill="black"/>
        <path d="M10 28H11" stroke="black"/>
        <path d="M11 31H10" stroke="black"/>
    </g>
    <defs>
        <clipPath id="clip0_6_2">
            <rect width="36" height="38" fill="white"/>
        </clipPath>
    </defs>
</svg>