<svg width="14" height="16" viewBox="0 0 36 38" fill="none" xmlns="http://www.w3.org/2000/svg">
<g clip-path="url(#clip0_9_22)">
<path d="M35 2H1C0.447 2 0 2.448 0 3V35C0 36.654 1.346 38 3 38H33C34.654 38 36 36.654 36 35V3C36 2.448 35.553 2 35 2Z" fill="black"/>
<path d="M33 35H3C1.895 35 1 34.105 1 33V1H35V33C35 34.105 34.105 35 33 35Z" fill="white"/>
<path d="M33 36H3C1.346 36 0 34.654 0 33V1C0 0.447 0.447 0 1 0H35C35.553 0 36 0.447 36 1V33C36 34.654 34.654 36 33 36ZM2 2V33C2 33.552 2.448 34 3 34H33C33.552 34 34 33.552 34 33V2H2Z" fill="black"/>
<path d="M11 13H6V30H11V13Z" fill="black"/>
<path d="M8.485 11H8.457C6.965 11 6 9.888 6 8.499C6 7.08 6.995 6 8.514 6C10.035 6 10.972 7.08 11 8.499C11 9.887 10.035 11 8.485 11Z" fill="black"/>
<path d="M30 30H25V20.901C25 18.703 23.775 17.203 21.808 17.203C20.307 17.203 19.495 18.215 19.101 19.193C18.957 19.543 19 20.511 19 21V30H14V13H19V15.616C19.721 14.5 20.85 13 23.738 13C27.316 13 29.999 15.25 29.999 20.274L30 30Z" fill="black"/>
</g>
<defs>
<clipPath id="clip0_9_22">
<rect width="36" height="38" fill="white"/>
</clipPath>
</defs>
</svg>
